<svg width="278" height="133" viewBox="0 0 278 133" fill="none" xmlns="http://www.w3.org/2000/svg">
<g clip-path="url(#clip0_903_25538)">
<path fill-rule="evenodd" clip-rule="evenodd" d="M130.755 22.6177C130.721 22.2347 130.603 21.8828 130.547 21.508C130.396 20.3897 130.169 19.2829 129.867 18.1953C129.753 17.7812 129.647 17.3671 129.515 16.9716C129.253 16.1626 128.949 15.3679 128.604 14.5906C128.322 13.9695 128.015 13.369 127.688 12.7728C125.834 9.40255 123.215 6.51237 120.042 4.33353C119.451 3.92979 118.852 3.54885 118.226 3.1948C117.639 2.86352 117.048 2.5509 116.43 2.26932C115.662 1.91938 114.877 1.61041 114.076 1.34378C112.273 0.708418 110.4 0.291333 108.498 0.101496C108.14 0.0365766 107.777 -7.0245e-05 107.413 -0.00819406H25.6155C19.3504 -0.0778608 13.2813 2.17087 8.5784 6.30447C3.87551 10.4381 0.871941 16.1638 0.146783 22.3776C-0.209103 25.8018 0.155836 29.2626 1.21823 32.5378C2.28063 35.8129 4.01702 38.8302 6.31596 41.396C8.61489 43.9618 11.4256 46.0194 14.5678 47.4368C17.71 48.8543 21.1142 49.6002 24.5621 49.6269H47.1091L10.7971 86.3775C1.73726 95.5455 0.269105 110.434 8.42899 120.432C10.58 123.107 13.274 125.295 16.3336 126.855C19.3932 128.414 22.749 129.308 26.1799 129.479C29.6108 129.65 33.0389 129.092 36.2385 127.844C39.4381 126.596 42.3366 124.685 44.743 122.238L71.9081 94.7421C72.7196 93.926 73.7567 93.3704 74.8865 93.1466C76.0163 92.9227 77.1873 93.0408 78.2495 93.4856C79.3116 93.9305 80.2166 94.6818 80.8483 95.6434C81.48 96.605 81.8098 97.7331 81.7953 98.883V106.484C81.7953 119.449 91.1621 131.027 103.917 132.257C107.349 132.573 110.809 132.167 114.074 131.067C117.339 129.967 120.337 128.196 122.875 125.868C125.413 123.541 127.434 120.708 128.809 117.553C130.184 114.398 130.882 110.991 130.858 107.55V23.713C130.851 23.3459 130.817 22.9797 130.755 22.6177ZM147.276 22.6177C147.309 22.2347 147.427 21.8828 147.483 21.508C147.633 20.3896 147.859 19.2827 148.161 18.1953C148.275 17.7812 148.381 17.3774 148.516 16.9737C148.778 16.1647 149.082 15.3699 149.428 14.5927C149.708 13.9715 150.017 13.3711 150.345 12.7748C152.199 9.40493 154.817 6.51492 157.99 4.33561C158.581 3.93187 159.18 3.55093 159.807 3.19688C160.394 2.86561 160.985 2.55293 161.602 2.27134C162.37 1.92141 163.156 1.61249 163.956 1.34587C165.76 0.710496 167.633 0.293413 169.536 0.103581C169.894 0.0385568 170.256 0.00190871 170.619 -0.00610894H252.415C258.68 -0.0757756 264.749 2.17295 269.452 6.30655C274.155 10.4402 277.158 16.1659 277.883 22.3796C278.239 25.8039 277.874 29.2647 276.811 32.5397C275.748 35.8148 274.012 38.8318 271.713 41.3974C269.414 43.963 266.603 46.0204 263.46 47.4376C260.318 48.8548 256.914 49.6005 253.466 49.6269H230.921L267.235 86.3775C276.293 95.5455 277.761 110.434 269.601 120.432C267.45 123.107 264.756 125.295 261.697 126.855C258.637 128.414 255.281 129.308 251.85 129.479C248.419 129.65 244.991 129.092 241.792 127.844C238.592 126.596 235.694 124.685 233.287 122.238L206.122 94.7421C205.311 93.926 204.273 93.3704 203.144 93.1466C202.014 92.9227 200.843 93.0408 199.781 93.4856C198.719 93.9305 197.814 94.6818 197.182 95.6434C196.55 96.605 196.22 97.7331 196.235 98.883V106.484C196.235 119.449 186.868 131.027 174.113 132.257C170.681 132.574 167.221 132.17 163.955 131.07C160.689 129.971 157.691 128.2 155.153 125.872C152.614 123.544 150.593 120.711 149.219 117.555C147.844 114.399 147.148 110.991 147.174 107.55V23.713C147.18 23.3459 147.214 22.9798 147.276 22.6177Z" fill="#13084D"/>
<path fill-rule="evenodd" clip-rule="evenodd" d="M76.7362 56.8391C76.7362 56.8391 125.505 51.4165 130.859 100.768V107.553C130.901 110.796 130.298 114.016 129.084 117.024C127.87 120.033 126.07 122.771 123.788 125.079C121.506 127.388 118.787 129.221 115.79 130.472C112.792 131.723 109.576 132.367 106.327 132.367C103.079 132.367 99.8626 131.723 96.8653 130.472C93.868 129.221 91.1494 127.388 88.8672 125.079C86.5851 122.771 84.7848 120.033 83.571 117.024C82.3571 114.016 81.7538 110.796 81.796 107.553V82.7281C81.796 82.7281 81.7835 67.2307 71.2991 57.4437L76.7362 56.8391ZM201.297 56.8391C201.297 56.8391 152.529 51.4165 147.175 100.768V107.553C147.123 110.802 147.719 114.029 148.928 117.046C150.138 120.063 151.937 122.809 154.22 125.125C156.503 127.441 159.224 129.281 162.226 130.536C165.228 131.792 168.45 132.438 171.705 132.438C174.96 132.438 178.182 131.792 181.184 130.536C184.186 129.281 186.907 127.441 189.19 125.125C191.473 122.809 193.272 120.063 194.482 117.046C195.691 114.029 196.287 110.802 196.236 107.553V82.7281C196.236 82.7281 196.248 67.2307 206.732 57.4437L201.297 56.8391Z" fill="#4214CC"/>
<path fill-rule="evenodd" clip-rule="evenodd" d="M130.755 22.6163C130.259 16.4767 127.475 10.746 122.954 6.55537C118.433 2.36469 112.503 0.018545 106.334 -0.0200195H24.5626C18.0368 0.0830505 11.8133 2.74375 7.23494 7.3879C2.6566 12.032 0.0905762 18.2873 0.0905762 24.8037C0.0905762 31.3202 2.6566 37.5754 7.23494 42.2196C11.8133 46.8637 18.0368 49.5244 24.5626 49.6275H81.7958C81.7958 49.6275 130.859 49.6275 130.859 99.2771V23.7053C130.851 23.3402 130.817 22.9762 130.755 22.6163ZM147.276 22.6163C147.772 16.4767 150.556 10.746 155.077 6.55537C159.598 2.36469 165.529 0.018545 171.698 -0.0200195H253.466C259.992 0.0830505 266.216 2.74375 270.794 7.3879C275.372 12.032 277.939 18.2873 277.939 24.8037C277.939 31.3202 275.372 37.5754 270.794 42.2196C266.216 46.8637 259.992 49.5244 253.466 49.6275H196.233C196.233 49.6275 147.172 49.6275 147.172 99.2771V23.7053C147.18 23.3402 147.214 22.9762 147.276 22.6163Z" fill="#D400FF"/>
</g>
<defs>
<clipPath id="clip0_903_25538">
<rect width="278" height="132.381" fill="white"/>
</clipPath>
</defs>
</svg>
